<?xml version="1.0" encoding="UTF-8" standalone="no"?>
<svg width="130px" height="57px" viewBox="0 0 130 57" version="1.1" xmlns="http://www.w3.org/2000/svg" xmlns:xlink="http://www.w3.org/1999/xlink">
    <!-- Generator: Sketch 42 (36781) - http://www.bohemiancoding.com/sketch -->
    <title>Group</title>
    <desc>Created with Sketch.</desc>
    <defs></defs>
    <g id="Page-1" stroke="none" stroke-width="1" fill="none" fill-rule="evenodd">
        <g id="Artboard" transform="translate(-135.000000, -50.000000)">
            <g id="Group" transform="translate(135.000000, 50.000000)">
                <polygon id="M" fill="#FFFFFF" points="105.190171 52.5844 129.932718 52.5844 129.932718 42.9854445 105.190171 42.9854445 105.190171 3.8 90.6849019 3.8 78.9356339 33.2754321 67.1863659 3.8 52.7536232 3.8 52.7536232 52.5844 63.0523643 52.5844 63.0523643 18.428006 76.6873172 52.5844 81.1839506 52.5844 94.8189036 18.428006 94.8189036 52.5844"></polygon>
                <path d="M20.0785012,22.810836 L16.1047918,18.9734694 C20.3872788,16.3778797 26.0556957,16.8425862 29.8540949,20.5106577 L33.7651641,16.460627 C27.6999783,10.6035452 18.4523344,10.126258 11.9183841,14.9307025 L7.79324091,10.9470981 C16.5182561,3.91460733 29.3442609,4.36450409 37.6762333,12.4105963 L41.5873024,8.3605656 C30.3146339,-2.52532385 11.109269,-2.2936346 0.31471802,8.88445012 C0.31471802,8.88445012 0.340482642,15.0028626 0.353364953,18.0620689 C0.36615741,21.0999371 0.391742323,27.1756734 0.391742323,27.1756734 L9.23548744,27.2129034 C11.4745858,27.2223295 15.7660571,27.2403955 16.466244,27.2433432 C16.4282108,27.5052032 16.4085747,27.7695731 16.4073154,28.0344451 C16.4069985,28.1011021 16.4078454,28.1677881 16.4098554,28.2344674 C16.3993867,28.376415 16.393679,28.5160304 16.3927107,28.6492291 C16.3819408,30.1306126 16.9604109,31.5400907 18.1208874,32.6607498 C19.7323593,34.2169301 22.0393635,34.6322388 24.0088203,33.9203549 L27.9825297,37.7577215 C23.7000427,40.3533113 18.0316257,39.8886047 14.2332266,36.2205333 L10.3221574,40.2705639 C16.3873432,46.1276458 25.6349871,46.6049329 32.1689374,41.8004884 L36.2940806,45.7840929 C27.5690654,52.8165836 14.7430606,52.3666868 6.41108822,44.3205946 L2.50001904,48.3706253 C13.7726875,59.2565148 31.6823149,59.0193708 42.4768659,47.8412861 L44.4324004,45.8162707 L44.3639383,29.5583312 L27.621052,29.4878477 C27.6591107,29.2259878 27.6787468,28.9616179 27.6800061,28.6967459 C27.680323,28.6300889 27.6794761,28.5634029 27.6774661,28.4967236 C27.6879348,28.3547759 27.6936424,28.2151605 27.6946108,28.0819619 C27.7053807,26.6005784 27.1269106,25.1911002 25.9664341,24.0704412 C24.3549622,22.5142608 22.047958,22.0989522 20.0785012,22.810836 Z" id="Combined-Shape" fill="#FFFFFF" fill-rule="nonzero"></path>
                <path d="M11.897654,14.9309315 C18.4316043,10.126487 27.6792482,10.6037742 33.744434,16.460856 L29.8333648,20.5108867 C26.0349657,16.8428152 20.3665487,16.3781087 16.0840617,18.9736984 L20.0855082,22.7927908 L16.3073422,22.9938749 L16.5431937,27.2439834 L8.38556719,18.9412896 L11.897654,14.9309315 Z M32.1850673,41.8001255 C25.651117,46.60457 16.4034731,46.1272829 10.3382873,40.2702011 L14.2493565,36.2201704 C18.0477557,39.8882418 23.7161726,40.3529484 27.9986596,37.7573586 L24.0125203,33.940957 L27.5553802,33.2516347 L27.5395276,29.4870737 L36.8711172,37.7947095 L32.1850673,41.8001255 Z" id="Combined-Shape" fill="#30B2DC" fill-rule="nonzero"></path>
            </g>
        </g>
    </g>
</svg>