<?xml version="1.0" encoding="UTF-8" standalone="no"?>
<svg width="50px" height="62px" viewBox="0 0 50 62" version="1.1" xmlns="http://www.w3.org/2000/svg" xmlns:xlink="http://www.w3.org/1999/xlink">
    <!-- Generator: Sketch 42 (36781) - http://www.bohemiancoding.com/sketch -->
    <title>Combined Shape</title>
    <desc>Created with Sketch.</desc>
    <defs></defs>
    <g id="Page-1" stroke="none" stroke-width="1" fill="none" fill-rule="evenodd">
        <path d="M22.647902,24.4052614 C25.1145813,23.5274 27.9752254,24.0757304 29.9497475,26.0502525 C31.9242696,28.0247746 32.4726,30.8854187 31.5947386,33.352098 L32.0710678,33.8284271 L27.8284271,38.0710678 L27.352098,37.5947386 C24.8854187,38.4726 22.0247746,37.9242696 20.0502525,35.9497475 C18.0757304,33.9752254 17.5274,31.1145813 18.4052614,28.647902 L17.9289322,28.1715729 L22.1715729,23.9289322 L22.647902,24.4052614 Z M39.7920905,12.8231767 C31.4684034,4.7883208 18.5797262,4.41692045 9.77439014,11.5317495 L13.6862915,15.4436508 C20.2807297,10.1761663 30.262624,11.0008919 36.3217785,16.8497943 L32.0710678,21.1005051 C28.2764458,17.4375561 22.5757299,16.9052289 17.9289322,19.6862915 L22.1715729,23.9289322 L17.9289322,28.1715729 L1.09600935,28.3092128 L0.982811417,11.2254521 C0.982811417,11.2254521 4.50332798,7.59494664 5.2254521,6.98281142 C16.2315535,-2.34691756 33.1762579,-1.46922414 43.7443323,8.73213898 L39.7920905,12.8231767 Z M10.2079095,49.1768233 C18.5315966,57.2116792 31.4202738,57.5830796 40.2256099,50.4682505 L36.3137085,46.5563492 C29.7192703,51.8238337 19.737376,50.9991081 13.6782215,45.1502057 L17.9289322,40.8994949 C21.7235542,44.5624439 27.4242701,45.0947711 32.0710678,42.3137085 L27.8284271,38.0710678 L32.0710678,33.8284271 L48.9039907,33.6907872 L49.0171886,50.7745479 C49.0171886,50.7745479 45.496672,54.4050534 44.7745479,55.0171886 C33.7684465,64.3469176 16.8237421,63.4692241 6.25566771,53.267861 L10.2079095,49.1768233 Z" id="Combined-Shape" fill="#125688"></path>
    </g>
</svg>