<?xml version="1.0" encoding="UTF-8" standalone="no"?>
<svg width="79px" height="82px" viewBox="0 0 79 82" version="1.1" xmlns="http://www.w3.org/2000/svg" xmlns:xlink="http://www.w3.org/1999/xlink">
    <!-- Generator: Sketch 42 (36781) - http://www.bohemiancoding.com/sketch -->
    <title>Group</title>
    <desc>Created with Sketch.</desc>
    <defs></defs>
    <g id="Page-1" stroke="none" stroke-width="1" fill="none" fill-rule="evenodd">
        <g id="Artboard-Copy" transform="translate(-164.000000, -39.000000)">
            <g id="Group" transform="translate(164.000000, 39.000000)">
                <path d="M38.5787015,12 C26.6487623,12 17,21.6487623 17,33.5787015 L23.1653433,33.5787015 C23.1653433,25.0705278 30.0705278,18.1653433 38.5787015,18.1653433 C47.0868753,18.1653433 53.9920598,25.0705278 53.9920598,33.5787015 L60.1574031,33.5787015 C60.1574031,21.6487623 50.5086408,12 38.5787015,12 Z" id="Path" fill="#30B2DC"></path>
                <path d="M42.4366181,40.7659972 C45.1493691,39.5637553 47.0606255,36.8818309 47.0606255,33.7066791 C47.0606255,29.4525922 43.6080333,26 39.3539464,26 C35.0998595,26 31.6472673,29.4525922 31.6472673,33.7066791 C31.6472673,36.8510042 33.5585237,39.5637553 36.2712748,40.7659972 L36.2712748,50.9388136 C36.2712748,50.9388136 36.7052755,57.9119548 30.1059315,56.549276 C23.5065875,55.1865973 11.8621446,45.8986455 11.8621446,45.8986455 L0,65.797291 L30.1059315,65.797291 C30.1059315,65.797291 36.0394033,81.4331015 39.3539464,81.4331015 C42.6684895,81.4331015 48.6019614,65.797291 48.6019614,65.797291 L78.6860608,65.797291 L67.690673,45.8986455 C67.690673,45.8986455 52.700272,55.7313411 48.6019614,56.549276 C45.4576048,57.1768222 43.5089508,53.5388473 42.7721474,51.8112409 C42.5486115,51.2871091 42.4366181,50.9388136 42.4366181,50.9388136 L42.4366181,40.7659972 Z" id="Path" fill="#125688"></path>
                <path d="M38.9093881,0 C20.1975712,0 5,15.1975712 5,33.9093881 L11.1653433,33.9093881 C11.1653433,18.58851 23.58851,6.1653433 38.9093881,6.1653433 C54.2302662,6.1653433 66.653433,18.58851 66.653433,33.9093881 L72.8187763,33.9093881 C72.8187763,15.1975712 57.621205,0 38.9093881,0 Z" id="Path" fill="#30B2DC"></path>
            </g>
        </g>
    </g>
</svg>